<svg xmlns="http://www.w3.org/2000/svg" xmlns:osb="http://www.openswatchbook.org/uri/2009/osb" xmlns:svg="http://www.w3.org/2000/svg" xmlns:xlink="http://www.w3.org/1999/xlink" id="svg2" width="86" height="86" version="1.1"><defs id="defs4"><pattern id="pattern5924" patternTransform="matrix(0,0.59649818,-12.578863,0,49.533333,80)" xlink:href="#Strips1_1"/><pattern id="Strips1_1" width="2" height="1" patternTransform="translate(0,0) scale(10,10)" patternUnits="userSpaceOnUse"><rect id="rect4683" width="1" height="2" x="0" y="-.5" style="fill:#000;stroke:none"/></pattern><linearGradient id="linearGradient5882" osb:paint="solid"><stop style="stop-color:#27aa41;stop-opacity:1" id="stop5884" offset="0"/></linearGradient><linearGradient id="linearGradient3954"><stop style="stop-color:#b7b7b7;stop-opacity:1" id="stop3956" offset="0"/><stop style="stop-color:#8f8f8f;stop-opacity:1" id="stop3958" offset="1"/></linearGradient><linearGradient id="linearGradient3789"><stop style="stop-color:#3092d8;stop-opacity:1" id="stop3791" offset="0"/><stop style="stop-color:#cce8fc;stop-opacity:1" id="stop3793" offset="1"/></linearGradient><linearGradient id="linearGradient3835" x1="45" x2="45" y1="10" y2="80" gradientTransform="matrix(0.95555556,0,0,0.95555556,115,4)" gradientUnits="userSpaceOnUse" spreadMethod="pad" xlink:href="#linearGradient3789"/><radialGradient id="radialGradient5641" cx="40.891" cy="11.859" r=".766" fx="40.891" fy="11.859" gradientTransform="matrix(0.17649589,-0.00707087,0.00704519,0.17585485,33.590047,10.062978)" gradientUnits="userSpaceOnUse" spreadMethod="reflect" xlink:href="#linearGradient3954"/><linearGradient id="linearGradient3954-4"><stop style="stop-color:#b7b7b7;stop-opacity:1" id="stop3956-5" offset="0"/><stop style="stop-color:#8f8f8f;stop-opacity:1" id="stop3958-8" offset="1"/></linearGradient><radialGradient id="radialGradient5658" cx="40.891" cy="11.859" r=".766" fx="40.891" fy="11.859" gradientTransform="matrix(0.17649589,-0.00707087,0.00704519,0.17585485,33.590047,10.062978)" gradientUnits="userSpaceOnUse" spreadMethod="reflect" xlink:href="#linearGradient3954-4"/><linearGradient id="linearGradient3954-4-2"><stop style="stop-color:#6f6f6f;stop-opacity:1" id="stop3956-5-1" offset="0"/><stop style="stop-color:#828282;stop-opacity:1" id="stop3958-8-4" offset="1"/></linearGradient><radialGradient id="radialGradient5692" cx="40.891" cy="11.859" r=".766" fx="40.891" fy="11.859" gradientTransform="matrix(0.17649589,-0.00707087,0.00704519,0.17585485,33.590047,10.062978)" gradientUnits="userSpaceOnUse" spreadMethod="reflect" xlink:href="#linearGradient3954-4-2"/><linearGradient id="linearGradient3954-4-2-2"><stop style="stop-color:#b7b7b7;stop-opacity:1" id="stop3956-5-1-4" offset="0"/><stop style="stop-color:#8f8f8f;stop-opacity:1" id="stop3958-8-4-5" offset="1"/></linearGradient><radialGradient id="radialGradient5726" cx="40.891" cy="11.859" r=".766" fx="40.891" fy="11.859" gradientTransform="matrix(0.17649589,-0.00707087,0.00704519,0.17585485,33.590047,10.062978)" gradientUnits="userSpaceOnUse" spreadMethod="reflect" xlink:href="#linearGradient3954-4-2-2"/><linearGradient id="linearGradient5850" x1="28" x2="28" y1="88" y2="71" gradientTransform="translate(-1,0)" gradientUnits="userSpaceOnUse" xlink:href="#linearGradient3954-4-2-2"/><linearGradient id="linearGradient5858" x1="28" x2="28" y1="65" y2="77" gradientTransform="translate(-1,0)" gradientUnits="userSpaceOnUse" xlink:href="#linearGradient3954-4-2"/><pattern id="pattern5924-2" patternTransform="matrix(0.49967841,-5.3563122e-5,6.4318262e-4,6.0001071,30,50)" xlink:href="#Strips1_1-6"/><pattern id="Strips1_1-6" width="2" height="1" patternTransform="translate(0,0) scale(10,10)" patternUnits="userSpaceOnUse"><rect id="rect4683-2" width="1" height="2" x="0" y="-.5" style="fill:#000;stroke:none"/></pattern><pattern id="pattern5924-2-7" patternTransform="matrix(0.49967841,-5.3563122e-5,6.4318262e-4,6.0001071,21.200155,58.805903)" xlink:href="#Strips1_1-6-8"/><pattern id="Strips1_1-6-8" width="2" height="1" patternTransform="translate(0,0) scale(10,10)" patternUnits="userSpaceOnUse"><rect id="rect4683-2-2" width="1" height="2" x="0" y="-.5" style="fill:#000;stroke:none"/></pattern><linearGradient id="linearGradient3008" x1="45" x2="45" y1="10" y2="80" gradientTransform="matrix(0.95555556,0,0,0.95555556,-1e-6,4.0000015)" gradientUnits="userSpaceOnUse" spreadMethod="pad" xlink:href="#linearGradient3789"/></defs><metadata id="metadata7"/><g id="layer2" transform="translate(0,-4)" style="display:inline"><path style="fill:url(#linearGradient3008);fill-opacity:1;stroke:none;display:inline" id="rect3059-9" d="m 42.999999,4.0000015 c -23.748241,0 -43,19.2517555 -43,42.9999975 l 0,40.790279 c 0,1.228371 0.981349,2.209721 2.209722,2.209721 l 40.790278,0 40.790282,0 c 1.22837,0 2.20972,-0.98135 2.20972,-2.209721 l 0,-81.5805545 c 0,-1.228372 -0.98135,-2.209722 -2.20972,-2.209722 l -40.790282,0 z"/><rect style="fill:#aaa327;fill-opacity:1;stroke:none;display:inline" id="rect5860-7-7" width="7" height="7" x="18.2" y="56.806" ry=".547"/><path style="fill:none;stroke:#000;stroke-width:.30000001;stroke-linecap:butt;stroke-linejoin:miter;stroke-miterlimit:4;stroke-opacity:1;stroke-dasharray:none" id="path5747" d="M 39.465611,16.560331 68.291261,34.16066 67.573106,35.33733 38.896612,17.687282 z"/><path style="fill:url(#radialGradient5641);fill-opacity:1;stroke:none" id="path5629" d="m 41.65625,11.859374 a 0.765625,0.765625 0 1 1 -1.53125,0 0.765625,0.765625 0 1 1 1.53125,0 z" transform="matrix(1.3010204,0,0,1.3010204,-13.84407,1.8168051)"/><rect style="fill:#731f1f;fill-opacity:1;stroke:none;display:inline" id="rect5533-1-1" width="5" height="1" x="38.437" y="-1.484" ry=".5" transform="matrix(0.90643447,0.42234648,-0.42234648,0.90643447,0,0)"/><path style="fill:none;stroke:#000;stroke-width:.30000001;stroke-linecap:butt;stroke-linejoin:miter;stroke-miterlimit:4;stroke-opacity:1;stroke-dasharray:none" id="path5749" d="M 30.445312,11.468749 30.55714,45.884213"/><path style="fill:none;stroke:#000;stroke-width:.30000001;stroke-linecap:butt;stroke-linejoin:miter;stroke-miterlimit:4;stroke-opacity:1;stroke-dasharray:none" id="path5771" d="m 31.842231,11.664256 29.327182,72.124012 0.07288,-0.08594"/><path style="fill:url(#radialGradient5726);fill-opacity:1;stroke:none;display:inline" id="path5629-8-9-2" d="m 41.65625,11.859374 a 0.765625,0.765625 0 1 1 -1.53125,0 0.765625,0.765625 0 1 1 1.53125,0 z" transform="matrix(1.3010204,0,0,1.3010204,-22.086256,-3.6246007)"/><rect style="fill:#731f1f;fill-opacity:1;stroke:none;display:inline" id="rect5533-1-1-5-2" width="2.963" height=".984" x="9.278" y="-34.702" ry=".492" transform="matrix(-0.255464,0.96681857,-0.99994547,-0.01044286,0,0)"/><rect style="fill:#731f1f;fill-opacity:1;stroke:none;display:inline" id="rect5533-1-1-5-2-7" width="2.963" height=".984" x="-36.685" y=".834" ry=".492" transform="matrix(-0.94848993,-0.31680727,0.07440809,-0.99722788,0,0)"/><path style="fill:#4d4d4d;fill-opacity:1;stroke:none" id="path3952" d="M 70,77 31,10 c 0.380265,-0.6867647 0.931508,-1.1625366 2,-1 l 38,66"/><rect style="opacity:.9;fill:#000;fill-opacity:1;stroke:none" id="rect3802" width="2" height="1" x="72" y="47" ry="0"/><rect style="fill:#4d4d4d;fill-opacity:1;stroke:none;display:inline" id="rect3802-1" width="2" height="1" x="72" y="47" ry="0"/><rect style="fill:#4d4d4d;fill-opacity:1;stroke:none;display:inline" id="rect3802-1-7" width="3" height="1" x="72" y="51" ry="0"/><rect style="fill:#4d4d4d;fill-opacity:1;stroke:none;display:inline" id="rect3802-1-7-4" width="3" height="1" x="72" y="56" ry="0"/><rect style="fill:#4d4d4d;fill-opacity:1;stroke:none;display:inline" id="rect3802-1-7-4-0" width="4" height="1" x="72" y="60" ry="0"/><rect style="fill:#4d4d4d;fill-opacity:1;stroke:none;display:inline" id="rect3802-1-7-4-0-9" width="5" height="1" x="72" y="66" ry="0"/><rect style="fill:#4d4d4d;fill-opacity:1;stroke:none;display:inline" id="rect3802-1-7-4-0-9-4-8" width="7" height="1" x="72" y="77" ry="0"/><rect style="fill:#4d4d4d;fill-opacity:1;stroke:none;display:inline" id="rect3802-1-8" width="1" height="1" x="72" y="42" ry="0"/><path style="fill:#a12b2b;fill-opacity:1;stroke:none;display:inline" id="path3952-7" d="m 64.21875,63.1875 c -0.738485,0.168196 -1.324823,0.453563 -1.78125,0.84375 L 70,77 71,75 64.21875,63.1875 z"/><path style="fill:none;stroke:#000;stroke-width:.30000001;stroke-linecap:butt;stroke-linejoin:miter;stroke-miterlimit:4;stroke-opacity:1;stroke-dasharray:none" id="path5745" d="M 42.013175,25.03102 68.369314,38.637158 69.625001,65.375"/><path style="fill:url(#radialGradient5692);fill-opacity:1;stroke:none;display:inline" id="path5629-8-9" d="m 41.65625,11.859374 a 0.765625,0.765625 0 1 1 -1.53125,0 0.765625,0.765625 0 1 1 1.53125,0 z" transform="matrix(1.3010204,0,0,1.3010204,14.464526,23.672274)"/><rect style="fill:#731f1f;fill-opacity:1;stroke:none" id="rect5533" width="5" height="1" x="30.257" y="71.376" ry=".5" transform="matrix(0.80048244,-0.59935621,0.59935621,0.80048244,0,0)"/><path style="fill:url(#radialGradient5658);fill-opacity:1;stroke:none;display:inline" id="path5629-8" d="m 41.65625,11.859374 a 0.765625,0.765625 0 1 1 -1.53125,0 0.765625,0.765625 0 1 1 1.53125,0 z" transform="matrix(1.3010204,0,0,1.3010204,14.480151,19.117587)"/><rect style="fill:#731f1f;fill-opacity:1;stroke:none;display:inline" id="rect5533-1" width="5" height="1" x="75.468" y="2.223" ry=".5" transform="matrix(0.90643447,0.42234648,-0.42234648,0.90643447,0,0)"/><rect style="fill:#a12b2b;fill-opacity:1;stroke:none" id="rect3950" width="1" height="10" x="73" y="67" ry="0"/><rect style="fill:#4d4d4d;fill-opacity:1;stroke:none;display:inline" id="rect3802-1-7-4-0-9-4" width="6" height="1" x="72" y="71" ry="0"/><path style="fill:#4d4d4d;fill-opacity:1;stroke:none" id="path3032" d="m 72,85 0,-47 7,47 4,0 0,-11 -9,-39 -1,-1 -3,0 -1,51 z"/><path style="fill:none;stroke:#000;stroke-width:.30000001;stroke-linecap:butt;stroke-linejoin:miter;stroke-miterlimit:4;stroke-opacity:1;stroke-dasharray:none" id="path5769" d="M 40.553022,26.092639 61.492188,83.742187"/><path style="fill:#a12b2b;fill-opacity:1;stroke:none;display:inline" id="path3952-5" d="m 42.09375,24.875 c -0.742202,0.109561 -1.261743,0.610099 -1.71875,1.21875 L 50.28125,43.125 C 50.62516,42.509514 51.262276,42.074092 52,42 L 42.15625,24.875 c -0.02114,0.0025 -0.04171,-0.0031 -0.0625,0 z"/><rect style="fill:#731f1f;fill-opacity:1;stroke:none;display:inline" id="rect5533-1-1-5-2-9" width="2.963" height=".984" x="106.467" y="-31.073" ry=".492" transform="matrix(0.33566035,0.94198308,-0.83083456,0.55651948,0,0)"/><rect style="fill:#731f1f;fill-opacity:1;stroke:none;display:inline" id="rect5533-1-1-5-2-7-9" width="2.963" height=".984" x="-55.291" y="24.655" ry=".492" transform="matrix(-0.3905589,-0.92057794,0.79661413,-0.60448815,0,0)"/><path style="fill:#a12b2b;fill-opacity:1;stroke:none;display:inline" id="path3032-8" d="m 70,34 -0.125,7 2.125,0 0,-3 0.4375,3 2.9375,0 L 74,35 73,34 70,34 z"/><path style="fill:url(#linearGradient5850);fill-opacity:1;stroke:none" id="path5814" d="M 19,90 36,90 39,77 27,71 15,77 z"/><rect style="opacity:.25;fill:url(#pattern5924-2-7);fill-opacity:1;stroke:none;display:inline" id="rect5860-8-5-8" width="7" height="7" x="18.2" y="56.806" ry=".547"/><rect style="fill:#d6d6d6;fill-opacity:1;stroke:none" id="rect5818" width="20" height="10" x="17" y="60" ry=".098"/><path style="fill:url(#linearGradient5858);fill-opacity:1;stroke:none" id="path5816" d="m 15,77 12,-6 12,6 0,-2 3,-3 -15,-7 -15,7 3,3 0,2"/><path style="fill:#d6d6d6;fill-opacity:1;stroke:none" id="rect5825" d="M 42 81 C 40.892 81 40 81.892 40 83 L 40 84 L 40 86 L 42 86 L 44 86 L 84 86 C 85.108 86 86 85.108 86 84 L 86 83 L 86 81 L 84 81 L 83 81 L 42 81 z" transform="translate(0,4)"/><path style="fill:#0094f0;fill-opacity:1;stroke:none" id="rect5833" d="m 0,84 c 0,1.108 0.892,2 2,2 l 36,0 2,0 0,-2 c -0.990715,0.162024 -1.461961,0.06431 -2,0 C 32.995955,83.783987 29.182518,83.298567 25.991039,83.779916 23.225638,84.197003 20.769647,83.926462 19,84 15.792506,84.163309 12.591675,84.577431 9.4576846,84.169262 6.0906855,83.730746 3.029153,83.818532 0,84 z" transform="translate(0,4)"/><rect style="fill:#aa2727;fill-opacity:1;stroke:none" id="rect5860" width="14" height="7" x="43" y="78" ry=".547"/><rect style="opacity:.25;fill:url(#pattern5924);fill-opacity:1;stroke:none;display:inline" id="rect5860-8" width="14" height="7" x="43" y="78" ry=".547"/><rect style="fill:#aa2727;fill-opacity:1;stroke:none;display:inline" id="rect5860-7" width="7" height="7" x="27" y="48" ry=".547"/><rect style="opacity:.25;fill:url(#pattern5924-2);fill-opacity:1;stroke:none;display:inline" id="rect5860-8-5" width="7" height="7" x="27" y="48" ry=".547"/><rect style="opacity:1;fill:#731f1f;fill-opacity:1;stroke:none" id="rect5988" width="1" height="3" x="30.055" y="43.055" ry=".5"/><path style="fill:none;stroke:#000;stroke-width:.30000001;stroke-linecap:butt;stroke-linejoin:miter;stroke-miterlimit:4;stroke-opacity:1;stroke-dasharray:none;display:inline" id="path5749-0" d="m 29.812174,45.480719 0.08839,6.397534"/><path style="fill:none;stroke:#000;stroke-width:.30000001;stroke-linecap:butt;stroke-linejoin:miter;stroke-miterlimit:4;stroke-opacity:1;stroke-dasharray:none;display:inline" id="path5749-0-2" d="m 31.25633,45.36367 0.03315,6.552214"/><rect style="fill:#731f1f;fill-opacity:1;stroke:none" id="rect5990" width="2" height="2.232" x="29.541" y="44.591" ry="1.116"/><rect style="fill:#767676;fill-opacity:1;stroke:none" id="rect6028" width="2.519" height=".497" x="29.312" y="51.452" ry=".091"/><path style="fill:#2b1100;fill-opacity:1;stroke:none" id="path6032" d="m 28.98033,47.727844 a 0.11048543,0.11048543 0 1 1 -0.220971,0 0.11048543,0.11048543 0 1 1 0.220971,0 z" transform="translate(0.69605825,3.9889515)"/><path style="fill:#2b1100;fill-opacity:1;stroke:none;display:inline" id="path6032-0" d="m 28.98033,47.727844 a 0.11048543,0.11048543 0 1 1 -0.220971,0 0.11048543,0.11048543 0 1 1 0.220971,0 z" transform="translate(2.7179416,3.9779037)"/><path style="fill:#2b1100;fill-opacity:1;stroke:none;display:inline" id="path6032-0-8" d="m 28.98033,47.727844 a 0.11048543,0.11048543 0 1 1 -0.220971,0 0.11048543,0.11048543 0 1 1 0.220971,0 z" transform="translate(1.66833,-4.2201156)"/><path style="fill:#2b1100;fill-opacity:1;stroke:none;display:inline" id="path6032-0-8-9" d="m 28.98033,47.727844 a 0.11048543,0.11048543 0 1 1 -0.220971,0 0.11048543,0.11048543 0 1 1 0.220971,0 z" transform="translate(1.66833,-3.2201158)"/><path style="fill:#2b1100;fill-opacity:1;stroke:none;display:inline" id="path6032-0-8-2" d="m 28.98033,47.727844 a 0.11048543,0.11048543 0 1 1 -0.220971,0 0.11048543,0.11048543 0 1 1 0.220971,0 z" transform="translate(11.83299,-14.252193)"/><path style="fill:#2b1100;fill-opacity:1;stroke:none;display:inline" id="path6032-0-8-8" d="m 28.98033,47.727844 a 0.11048543,0.11048543 0 1 1 -0.220971,0 0.11048543,0.11048543 0 1 1 0.220971,0 z" transform="translate(12.540097,-12.440232)"/><path style="fill:#2b1100;fill-opacity:1;stroke:none;display:inline" id="path6032-0-8-9-2" d="m 28.98033,47.727844 a 0.11048543,0.11048543 0 1 1 -0.220971,0 0.11048543,0.11048543 0 1 1 0.220971,0 z" transform="translate(32.490485,36.032719)"/><path style="fill:#2b1100;fill-opacity:1;stroke:none;display:inline" id="path6032-0-8-2-0" d="m 28.98033,47.727844 a 0.11048543,0.11048543 0 1 1 -0.220971,0 0.11048543,0.11048543 0 1 1 0.220971,0 z" transform="translate(41.365081,-7.0318071)"/><path style="fill:#2b1100;fill-opacity:1;stroke:none;display:inline" id="path6032-0-8-2-0-5" d="m 28.98033,47.727844 a 0.11048543,0.11048543 0 1 1 -0.220971,0 0.11048543,0.11048543 0 1 1 0.220971,0 z" transform="translate(42.707586,-7.0207583)"/><path style="fill:#2b1100;fill-opacity:1;stroke:none;display:inline" id="path6032-0-8-2-0-5-5" d="m 28.98033,47.727844 a 0.11048543,0.11048543 0 1 1 -0.220971,0 0.11048543,0.11048543 0 1 1 0.220971,0 z" transform="translate(43.96712,-7.0097093)"/><path style="fill:#2b1100;fill-opacity:1;stroke:none;display:inline" id="path6032-0-8-2-0-5-5-2" d="m 28.98033,47.727844 a 0.11048543,0.11048543 0 1 1 -0.220971,0 0.11048543,0.11048543 0 1 1 0.220971,0 z" transform="translate(46.110538,-7.009709)"/><path style="fill:#2b1100;fill-opacity:1;stroke:none;display:inline" id="path6032-0-8-2-0-5-5-2-7" d="m 28.98033,47.727844 a 0.11048543,0.11048543 0 1 1 -0.220971,0 0.11048543,0.11048543 0 1 1 0.220971,0 z" transform="translate(41.448053,-13.473107)"/><path style="fill:#2b1100;fill-opacity:1;stroke:none;display:inline" id="path6032-0-8-2-0-5-5-2-6" d="m 28.98033,47.727844 a 0.11048543,0.11048543 0 1 1 -0.220971,0 0.11048543,0.11048543 0 1 1 0.220971,0 z" transform="translate(42.088868,-13.473107)"/><path style="fill:#2b1100;fill-opacity:1;stroke:none;display:inline" id="path6032-0-8-2-0-5-5-2-7-7" d="m 28.98033,47.727844 a 0.11048543,0.11048543 0 1 1 -0.220971,0 0.11048543,0.11048543 0 1 1 0.220971,0 z" transform="translate(43.304422,-13.473107)"/><path style="fill:#2b1100;fill-opacity:1;stroke:none;display:inline" id="path6032-0-8-2-0-5-5-2-6-8" d="m 28.98033,47.727844 a 0.11048543,0.11048543 0 1 1 -0.220971,0 0.11048543,0.11048543 0 1 1 0.220971,0 z" transform="translate(43.945237,-13.473107)"/><path style="fill:#2b1100;fill-opacity:1;stroke:none;display:inline" id="path6032-0-8-2-0-5-5-2-6-8-7" d="m 28.98033,47.727844 a 0.11048543,0.11048543 0 1 1 -0.220971,0 0.11048543,0.11048543 0 1 1 0.220971,0 z" transform="translate(44.884363,-12.622369)"/><path style="fill:#2b1100;fill-opacity:1;stroke:none;display:inline" id="path6032-0-8-2-0-5-5-8" d="m 28.98033,47.727844 a 0.11048543,0.11048543 0 1 1 -0.220971,0 0.11048543,0.11048543 0 1 1 0.220971,0 z" transform="translate(44.618857,19.96858)"/><path style="fill:#2b1100;fill-opacity:1;stroke:none;display:inline" id="path6032-0-8-2-0-5-5-8-1" d="m 28.98033,47.727844 a 0.11048543,0.11048543 0 1 1 -0.220971,0 0.11048543,0.11048543 0 1 1 0.220971,0 z" transform="translate(44.65792,22.726392)"/><path style="fill:#2b1100;fill-opacity:1;stroke:none;display:inline" id="path6032-0-8-2-0-5-5-8-1-6" d="m 28.98033,47.727844 a 0.11048543,0.11048543 0 1 1 -0.220971,0 0.11048543,0.11048543 0 1 1 0.220971,0 z" transform="translate(44.650107,24.867017)"/><path style="fill:#2b1100;fill-opacity:1;stroke:none;display:inline" id="path6032-0-8-2-0-5-5-8-1-6-0" d="m 28.98033,47.727844 a 0.11048543,0.11048543 0 1 1 -0.220971,0 0.11048543,0.11048543 0 1 1 0.220971,0 z" transform="translate(44.650107,28.640455)"/></g></svg>